<svg aria-label="Trello Sample"
     height="37.5"
     role="img"
     viewBox="0 0 312 105"
     width="111.43"
     xmlns="http://www.w3.org/2000/svg"
>
    <linearGradient id="trello-logo-gradient-defaultMJFtCCgVhXrVl7v9HA7EH"
                    x1="49.992%"
                    x2="49.992%"
                    y1="100%"
                    y2=".016%">
        <stop offset="0" stop-color="#0052cc" />
        <stop offset="1" stop-color="#2684ff" />
    </linearGradient>
    <path d="m55.3 40.6h-47.5c-4.1 0-7.4 3.3-7.4 7.4v47.6c0 4.1 3.3 7.4 7.4 7.4h47.5c4.1 0 7.4-3.3 7.4-7.4v-47.6c0-4.1-3.3-7.4-7.4-7.4zm-28.1 44.9c0 1.4-1.1 2.5-2.5 2.5h-10.4c-1.4 0-2.5-1.1-2.5-2.5v-30.9c0-1.4 1.1-2.5 2.5-2.5h10.4c1.4 0 2.5 1.1 2.5 2.5zm24-14.2c0 1.4-1.1 2.5-2.4 2.5h-10.5c-1.4 0-2.5-1.1-2.5-2.5v-16.7c0-1.4 1.1-2.5 2.5-2.5h10.4c1.4 0 2.5 1.1 2.5 2.5z"
          fill="url(#trello-logo-gradient-defaultMJFtCCgVhXrVl7v9HA7EH)" />
    <g fill="#253858" transform="translate(87 40)">
        <path d="m42.6 5.2v12.1h-14.3v45.7h-13.8v-45.8h-14.3v-12z" />
        <path d="m60.2 63h-12.7v-45h12.7v8.6c2.4-6.1 6.3-9.7 13.2-9.2v13.3c-9-.7-13.2 1.5-13.2 8.7z" />
        <path d="m143 63.4c-8.4 0-13.6-4-13.6-13.5v-49.3h12.8v47.5c0 2.7 1.8 3.7 4 3.7.6 0 1.3 0 1.9-.1v11.1c-1.7.4-3.4.6-5.1.6z" />
        <path d="m169.8 63.4c-8.4 0-13.6-4-13.6-13.5v-49.3h12.8v47.5c0 2.7 1.8 3.7 4 3.7.6 0 1.3 0 1.9-.1v11.1c-1.7.4-3.4.6-5.1.6z" />
        <path d="m181 40.5c0-13.9 8-23.4 21.8-23.4s21.6 9.5 21.6 23.4-7.9 23.6-21.6 23.6-21.8-9.8-21.8-23.6zm12.5 0c0 6.8 2.8 12.1 9.3 12.1s9.1-5.4 9.1-12.1-2.8-12-9.1-12-9.3 5.2-9.3 12z" />
        <path d="m90.6 44.6c3.6.4 7.2.6 10.7.6 9.8 0 18-2.6 18-12.1 0-9.2-8.5-16.1-18.7-16.1-13.7 0-22.5 10-22.5 23.8 0 14.4 7.6 23 24.7 23 5.1.1 10.1-.8 14.9-2.6v-10.8c-4.4 1.4-9.4 2.8-14.4 2.8-6.8.1-11.5-2.2-12.7-8.6zm9.8-17.7c3.6 0 6.5 2.4 6.5 5.8 0 4.3-4.6 5.7-9.8 5.7-2.2 0-4.5-.2-6.7-.5.2-2.1.8-4.1 1.8-6 1.6-3.1 4.8-5 8.2-5z" />
    </g>
</svg>